# Blender v3.2.0 OBJ File: 'tank_head.blend'
# www.blender.org
mtllib tank_head.mtl
o head_立方体
v -0.436386 1.923515 -0.436386
v -0.436386 2.796288 -0.436386
v 0.436386 1.923515 -0.436386
v 0.436386 2.796288 -0.436386
v -0.436386 1.923515 0.436386
v -0.436386 2.796288 0.436386
v 0.436386 1.923515 0.436386
v 0.436386 2.796288 0.436386
v -0.436386 2.359902 -0.436386
v 0.436386 2.359902 -0.436386
v 0.436386 2.359902 0.436386
v -0.436386 2.359902 0.436386
v -0.000000 1.923515 -0.436386
v -0.000000 2.796288 -0.436386
v 0.000000 1.923515 0.436386
v 0.000000 2.796288 0.436386
v -0.000000 2.359902 -0.436386
v 0.436386 2.139201 -0.436386
v 0.436386 2.139201 0.436386
v -0.436386 2.139201 0.436386
v -0.436386 2.139201 -0.436386
v -0.000000 2.139201 -0.436386
v 0.000000 2.139201 0.436386
v -0.436386 2.578095 -0.436386
v 0.436386 2.578095 -0.436386
v 0.436386 2.578095 0.436386
v -0.436386 2.578095 0.436386
v 0.000000 2.578095 0.436386
v -0.000000 2.578095 -0.436386
v -0.220854 1.923515 -0.436386
v -0.220854 2.796288 0.436386
v -0.220854 2.359902 0.436386
v -0.220854 2.796288 -0.436386
v -0.220854 1.923515 0.436386
v -0.220854 2.359902 -0.436386
v -0.220854 2.139201 -0.436386
v -0.220854 2.139201 0.436386
v -0.220854 2.578095 -0.436386
v -0.220854 2.578095 0.436386
v 0.218193 2.796288 -0.436386
v 0.218193 1.923515 0.436386
v 0.218193 2.359902 -0.436386
v 0.218193 1.923515 -0.436386
v 0.218193 2.796288 0.436386
v 0.218193 2.359902 0.436386
v 0.218193 2.139201 0.436386
v 0.218193 2.139201 -0.436386
v 0.218193 2.578095 0.436386
v 0.218193 2.578095 -0.436386
v -0.110427 2.796288 -0.436386
v -0.110427 1.923515 0.436386
v -0.110427 2.359902 -0.436386
v -0.110427 2.139201 -0.436386
v -0.110427 2.578095 -0.436386
v -0.110427 1.923515 -0.436386
v -0.110427 2.796288 0.436386
v -0.176311 2.359927 0.430548
v -0.110427 2.139201 0.436386
v -0.110427 2.578095 0.436386
v 0.109097 1.923515 -0.436386
v 0.109097 2.796288 0.436386
v 0.186978 2.359927 0.430548
v 0.109097 2.139201 0.436386
v 0.109097 2.578095 0.436386
v 0.109097 2.796288 -0.436386
v 0.109097 1.923515 0.436386
v 0.109097 2.359902 -0.436386
v 0.109097 2.139201 -0.436386
v 0.109097 2.578095 -0.436386
v 0.436386 2.468998 -0.436386
v 0.436386 2.468998 0.436386
v -0.436386 2.468998 0.436386
v -0.000116 2.558926 0.430548
v -0.000000 2.468998 -0.436386
v -0.436386 2.468998 -0.436386
v -0.220854 2.468998 0.436386
v -0.220854 2.468998 -0.436386
v 0.218193 2.468998 -0.436386
v 0.218193 2.468998 0.436386
v -0.125249 2.483552 0.430548
v -0.110427 2.468998 -0.436386
v 0.109097 2.468998 -0.436386
v 0.123510 2.483552 0.430548
v -0.436386 2.249551 -0.436386
v 0.436386 2.249551 -0.436386
v 0.436386 2.249551 0.436386
v -0.436386 2.249551 0.436386
v -0.000000 2.249551 -0.436386
v -0.000116 2.162062 0.430548
v -0.220854 2.249551 -0.436386
v -0.220854 2.249551 0.436386
v 0.218193 2.249551 0.436386
v 0.218193 2.249551 -0.436386
v -0.125249 2.234880 0.430548
v -0.110427 2.249551 -0.436386
v 0.109097 2.249551 -0.436386
v 0.123510 2.234880 0.430548
v -0.155488 2.359902 1.247599
v 0.165106 2.359902 1.247599
v 0.000000 2.535514 1.247599
v -0.110427 2.468998 1.247599
v 0.109097 2.468998 1.247599
v 0.000000 2.185290 1.247599
v -0.110427 2.249551 1.247599
v 0.109097 2.249551 1.247599
v -0.209956 2.359963 1.324943
v 0.222354 2.359963 1.324943
v -0.000285 2.596771 1.324943
v -0.149192 2.507076 1.324943
v 0.146828 2.507076 1.324943
v -0.000285 2.124506 1.324943
v -0.149192 2.211160 1.324943
v 0.146828 2.211160 1.324943
v -0.209956 2.359963 1.443229
v 0.222354 2.359963 1.443229
v -0.000285 2.596771 1.443229
v -0.149192 2.507076 1.443229
v 0.146828 2.507076 1.443229
v -0.000285 2.124506 1.443229
v -0.149192 2.211160 1.443229
v 0.146828 2.211160 1.443229
v -0.000285 2.359963 1.395864
v 0.036983 2.443802 1.395864
v -0.037553 2.443802 1.395864
v -0.000285 2.459412 1.395864
v -0.105678 2.359963 1.395864
v -0.084037 2.397318 1.395864
v -0.084037 2.322609 1.395864
v 0.080267 2.319409 1.395864
v 0.080267 2.400518 1.395864
v 0.103246 2.359963 1.395864
v 0.037632 2.276775 1.395864
v -0.000285 2.256829 1.395864
v -0.038203 2.276774 1.395864
v -0.000285 2.528091 1.443229
v -0.157817 2.359963 1.443229
v -0.000285 2.190668 1.443229
v 0.162800 2.359963 1.443229
v 0.123510 2.234880 0.494518
v 0.186978 2.359927 0.494518
v -0.125249 2.234880 0.494518
v -0.000116 2.162062 0.494518
v -0.176311 2.359927 0.494518
v -0.125249 2.483552 0.494518
v -0.000116 2.558926 0.494518
v 0.123510 2.483552 0.494518
v 0.165105 2.359902 0.521358
v 0.000000 2.185290 0.521358
v -0.155488 2.359902 0.521358
v 0.109097 2.249551 0.521358
v -0.110427 2.249551 0.521358
v -0.110427 2.468998 0.521358
v 0.000000 2.535514 0.521358
v 0.109097 2.468998 0.521358
vt 0.440435 0.278879
vt 0.381904 0.220525
vt 0.440346 0.220437
vt 0.148551 0.513077
vt 0.382431 0.571187
vt 0.148636 0.571526
vt 0.558374 0.512471
vt 0.616204 0.570846
vt 0.558451 0.570934
vt 0.616114 0.512388
vt 0.850017 0.570495
vt 0.558728 0.746288
vt 0.616798 0.979980
vt 0.559066 0.980062
vt 0.558031 0.278702
vt 0.616296 0.629295
vt 0.850149 0.658511
vt 0.616339 0.658857
vt 0.558576 0.629382
vt 0.558601 0.658926
vt 0.148721 0.629974
vt 0.382557 0.659191
vt 0.148764 0.659535
vt 0.440259 0.161995
vt 0.381772 0.132526
vt 0.440214 0.132438
vt 0.528278 0.161862
vt 0.498656 0.132350
vt 0.528234 0.132305
vt 0.958575 0.307412
vt 0.988436 0.103687
vt 0.992725 0.301351
vt 0.469656 0.278835
vt 0.499229 0.512546
vt 0.470010 0.512594
vt 0.470361 0.746418
vt 0.499909 0.980147
vt 0.470688 0.980188
vt 0.499316 0.570922
vt 0.470140 0.571045
vt 0.528454 0.278747
vt 0.498789 0.220349
vt 0.528366 0.220304
vt 0.470303 0.688646
vt 0.499574 0.746383
vt 0.528189 0.102748
vt 0.498525 0.045022
vt 0.528102 0.044978
vt 0.440170 0.102881
vt 0.381640 0.045198
vt 0.440083 0.045110
vt 0.148807 0.689095
vt 0.382687 0.746534
vt 0.148890 0.746872
vt 0.558626 0.688497
vt 0.616463 0.746200
vt 0.616379 0.688420
vt 0.850278 0.745855
vt 0.498745 0.191128
vt 0.528322 0.191083
vt 0.499355 0.576272
vt 0.466325 0.596433
vt 0.850061 0.599721
vt 0.616250 0.600072
vt 0.558515 0.600172
vt 0.382470 0.600412
vt 0.148678 0.600750
vt 0.381860 0.191304
vt 0.440303 0.191216
vt 0.532856 0.596335
vt 0.615673 0.220173
vt 0.557900 0.191039
vt 0.615629 0.190952
vt 0.529034 0.688561
vt 0.529151 0.746337
vt 0.615496 0.102617
vt 0.557680 0.044933
vt 0.615409 0.044846
vt 0.615761 0.278616
vt 0.557944 0.220260
vt 0.615585 0.161731
vt 0.557811 0.132261
vt 0.615541 0.132174
vt 0.546557 0.629393
vt 0.532956 0.662873
vt 0.528796 0.512509
vt 0.529487 0.980105
vt 0.528855 0.570954
vt 0.469568 0.220393
vt 0.469524 0.191172
vt 0.440922 0.600351
vt 0.469391 0.102837
vt 0.469304 0.045066
vt 0.382603 0.688751
vt 0.441139 0.746454
vt 0.382346 0.512738
vt 0.440898 0.571111
vt 0.441466 0.980230
vt 0.383021 0.980313
vt 0.381992 0.278967
vt 0.440791 0.512645
vt 0.382510 0.629636
vt 0.441004 0.659090
vt 0.469480 0.161951
vt 0.469435 0.132394
vt 0.498877 0.278791
vt 0.784552 0.315820
vt 0.815067 0.096518
vt 0.817190 0.315954
vt 0.499494 0.688665
vt 0.557767 0.102704
vt 0.557856 0.161818
vt 0.498701 0.161907
vt 0.498612 0.102793
vt 0.441065 0.688664
vt 0.449422 0.629535
vt 0.466418 0.662966
vt 0.440931 0.629553
vt 0.923899 0.311062
vt 0.956154 0.099632
vt 0.381816 0.162083
vt 0.850105 0.628948
vt 0.714771 0.310026
vt 0.748480 0.102164
vt 0.750811 0.314226
vt 0.499516 0.682362
vt 0.381727 0.102969
vt 0.850192 0.688073
vt 0.922217 0.098234
vt 0.887903 0.074394
vt 0.923480 0.073411
vt 0.851785 0.096804
vt 0.887848 0.096445
vt 0.781103 0.074716
vt 0.782097 0.098571
vt 0.712414 0.106443
vt 0.745292 0.077676
vt 0.853287 0.315288
vt 0.889492 0.313209
vt 0.779533 0.047000
vt 0.701727 0.081142
vt 0.742694 0.052020
vt 0.813564 0.049804
vt 0.815336 0.074585
vt 0.850619 0.044961
vt 0.851557 0.071312
vt 0.959279 0.077981
vt 0.998483 0.081452
vt 0.803590 0.023203
vt 0.793626 0.021689
vt 0.809424 0.002679
vt 0.887744 0.048796
vt 0.924132 0.046334
vt 0.999887 0.052291
vt 0.960763 0.052255
vt 0.785337 0.036105
vt 0.881766 0.020799
vt 0.873120 0.017179
vt 0.890088 0.001190
vt 0.955112 0.023196
vt 0.944269 0.020023
vt 0.962749 0.002691
vt 0.735724 0.021718
vt 0.725244 0.018476
vt 0.744466 0.000113
vt 0.932716 0.034640
vt 0.860450 0.032160
vt 0.712040 0.035065
vt 0.702055 0.049342
vt 0.916550 0.034216
vt 0.991166 0.038099
vt 0.969531 0.023801
vt 0.772719 0.035423
vt 0.752041 0.022313
vt 0.840356 0.032338
vt 0.818579 0.021843
vt 0.895803 0.021411
vt 0.890933 0.338205
vt 0.924709 0.320544
vt 0.926420 0.336842
vt 0.749048 0.341126
vt 0.784543 0.324739
vt 0.784748 0.341363
vt 0.854531 0.340895
vt 0.889776 0.321368
vt 0.818028 0.340654
vt 0.853571 0.324918
vt 0.708650 0.337889
vt 0.749771 0.323631
vt 0.960111 0.315831
vt 0.962571 0.332261
vt 0.817646 0.323996
vt 0.997363 0.309963
vt 0.999887 0.326600
vt 0.849931 0.512041
vt 0.827057 0.017866
vt 0.906490 0.019196
vt 0.979715 0.021434
vt 0.762872 0.020099
vt 0.710359 0.319363
vn 0.0000 0.0000 -1.0000
vn 1.0000 0.0000 -0.0000
vn 0.0000 0.0000 1.0000
vn -1.0000 0.0000 0.0000
vn 0.0000 -1.0000 0.0000
vn 0.0000 1.0000 0.0000
vn 0.5075 -0.8616 0.0000
vn -0.0414 -0.0679 0.9968
vn 0.0610 0.0000 0.9981
vn 0.0650 0.0265 0.9975
vn -0.9243 0.3818 -0.0000
vn 0.0409 -0.0680 0.9968
vn -0.0615 0.0000 0.9981
vn -0.0667 0.0339 0.9972
vn -0.1839 0.0000 0.9830
vn 0.8917 -0.4526 -0.0000
vn 0.1300 0.0000 0.9915
vn -0.5030 -0.8643 -0.0000
vn 0.0000 0.0609 0.9981
vn 0.0000 0.2475 0.9689
vn 0.0000 0.2474 0.9689
vn 0.7429 0.3814 -0.5502
vn 0.4316 0.7079 -0.5591
vn -0.7756 -0.3167 -0.5460
vn -0.4157 -0.7144 -0.5629
vn -0.5160 0.8566 0.0000
vn 0.5206 0.8538 -0.0000
vn -0.9258 -0.3780 0.0000
vn 0.8896 0.4567 -0.0000
vn 0.4206 -0.7141 -0.5596
vn 0.7443 -0.3778 -0.5507
vn -0.4266 0.7082 -0.5625
vn -0.7745 0.3199 -0.5457
vn -0.2530 0.2530 0.9338
vn 0.2508 0.2508 0.9350
vn 0.0724 -0.5127 0.8555
vn -0.2552 -0.2552 0.9326
vn 0.7201 0.3697 0.5872
vn -0.7521 -0.3071 0.5832
vn 0.4179 0.6855 0.5962
vn -0.4129 0.6855 0.5997
vn -0.4023 -0.6914 0.6001
vn 0.7215 -0.3662 0.5876
vn -0.7510 0.3102 0.5829
vn 0.4073 -0.6914 0.5967
vn 0.0000 -0.2914 0.9566
vn 0.0000 -0.0616 0.9981
vn -0.0668 -0.0343 0.9972
vn 0.0650 -0.0269 0.9975
vn 0.0389 0.0669 0.9970
vn -0.0393 0.0668 0.9970
vn -0.4157 -0.7143 -0.5629
vn 0.7443 -0.3778 -0.5506
vn -0.2928 0.5566 0.7775
vn -0.0703 0.5044 0.8606
vn -0.5174 0.0555 0.8540
vn -0.5870 0.3326 0.7381
vn 0.6266 0.3630 0.6897
vn 0.5514 0.0320 0.8336
vn 0.0694 0.5041 0.8609
vn 0.2928 0.5566 0.7775
vn 0.6266 -0.3630 0.6897
vn 0.2314 -0.5523 0.8009
vn 0.5515 -0.0323 0.8336
vn 0.2529 -0.2529 0.9339
vn -0.5870 -0.3326 0.7381
vn -0.5176 -0.0562 0.8538
vn -0.0733 -0.5130 0.8553
vn -0.2314 -0.5523 0.8009
vn 0.4073 -0.6915 0.5967
usemtl マテリアル.002
s off
f 40/1/1 25/2/1 49/3/1
f 4/4/2 26/5/2 25/6/2
f 31/7/3 27/8/3 39/9/3
f 6/10/4 24/11/4 27/8/4
f 34/12/5 1/13/5 30/14/5
f 33/15/6 6/10/6 31/7/6
f 12/16/4 84/17/4 87/18/4
f 32/19/3 87/18/3 91/20/3
f 10/21/2 86/22/2 85/23/2
f 42/24/1 85/25/1 93/26/1
f 52/27/1 88/28/1 95/29/1
f 150/30/7 103/31/7 148/32/7
f 65/33/6 16/34/6 61/35/6
f 66/36/5 13/37/5 60/38/5
f 61/35/3 28/39/3 64/40/3
f 50/41/1 29/42/1 54/43/1
f 63/44/3 15/45/3 66/36/3
f 53/46/1 13/47/1 55/48/1
f 47/49/1 3/50/1 43/51/1
f 18/52/2 7/53/2 3/54/2
f 37/55/3 5/56/3 34/12/3
f 20/57/4 1/58/4 5/56/4
f 54/43/1 74/59/1 81/60/1
f 64/40/8 73/61/8 83/62/8
f 27/8/4 75/63/4 72/64/4
f 39/9/3 72/64/3 76/65/3
f 25/6/2 71/66/2 70/67/2
f 49/3/1 70/68/1 78/69/1
f 80/70/9 39/9/9 76/65/9
f 24/71/1 77/72/1 75/73/1
f 58/74/3 34/12/3 51/75/3
f 21/76/1 30/77/1 1/78/1
f 2/79/1 38/80/1 24/71/1
f 9/81/1 90/82/1 84/83/1
f 57/84/10 91/20/10 94/85/10
f 50/41/6 31/7/6 56/86/6
f 51/75/5 30/14/5 55/87/5
f 56/86/3 39/9/3 59/88/3
f 69/89/1 78/69/1 82/90/1
f 26/5/3 79/91/3 71/66/3
f 68/92/1 43/51/1 60/93/1
f 19/94/3 41/95/3 7/53/3
f 8/96/3 48/97/3 26/5/3
f 7/53/5 43/98/5 3/99/5
f 4/100/6 44/101/6 8/96/6
f 11/102/3 92/103/3 86/22/3
f 67/104/1 93/26/1 96/105/1
f 65/33/1 49/3/1 69/89/1
f 16/34/3 59/88/3 28/39/3
f 15/45/5 55/87/5 13/37/5
f 14/106/6 56/86/6 16/34/6
f 149/107/11 101/108/11 152/109/11
f 23/110/3 51/75/3 15/45/3
f 73/61/12 59/88/12 80/70/12
f 38/80/1 81/60/1 77/72/1
f 36/111/1 55/48/1 30/77/1
f 33/15/1 54/43/1 38/80/1
f 35/112/1 95/29/1 90/82/1
f 14/106/1 69/89/1 29/42/1
f 17/113/1 96/105/1 88/28/1
f 22/114/1 60/93/1 13/47/1
f 29/42/1 82/90/1 74/59/1
f 48/97/13 83/62/13 79/91/13
f 46/115/3 66/36/3 41/95/3
f 44/101/3 64/40/3 48/97/3
f 41/95/5 60/38/5 43/98/5
f 40/1/6 61/35/6 44/101/6
f 92/103/14 62/116/14 97/117/14
f 79/91/15 62/116/15 45/118/15
f 74/59/1 67/104/1 17/113/1
f 77/72/1 52/27/1 35/112/1
f 147/119/16 105/120/16 150/30/16
f 71/66/3 45/118/3 11/102/3
f 82/90/1 42/24/1 67/104/1
f 75/73/1 35/112/1 9/81/1
f 57/84/17 76/65/17 32/19/17
f 78/69/1 10/121/1 42/24/1
f 70/67/2 11/102/2 10/21/2
f 76/65/3 12/16/3 32/19/3
f 72/64/4 9/122/4 12/16/4
f 148/123/18 104/124/18 151/125/18
f 81/60/1 17/113/1 52/27/1
f 46/115/19 97/117/19 63/44/19
f 88/28/1 68/92/1 22/114/1
f 90/82/1 53/46/1 36/111/1
f 89/126/20 58/74/20 23/110/20
f 96/105/1 47/49/1 68/92/1
f 86/22/3 46/115/3 19/94/3
f 94/85/19 37/55/19 58/74/19
f 84/83/1 36/111/1 21/76/1
f 63/44/21 89/126/21 23/110/21
f 95/29/1 22/114/1 53/46/1
f 93/26/1 18/127/1 47/49/1
f 85/23/2 19/94/2 18/52/2
f 91/20/3 20/57/3 37/55/3
f 87/18/4 21/128/4 20/57/4
f 99/129/22 110/130/22 107/131/22
f 100/132/23 110/130/23 102/133/23
f 104/124/24 106/134/24 98/135/24
f 103/136/25 112/137/25 104/124/25
f 152/109/26 100/132/26 153/138/26
f 153/138/27 102/133/27 154/139/27
f 151/125/28 98/135/28 149/107/28
f 154/139/29 99/129/29 147/119/29
f 112/137/28 114/140/28 106/134/28
f 111/141/18 120/142/18 112/137/18
f 106/134/11 117/143/11 109/144/11
f 109/144/26 116/145/26 108/146/26
f 103/31/30 113/147/30 111/148/30
f 99/129/31 113/147/31 105/120/31
f 100/132/32 109/144/32 108/146/32
f 98/135/33 109/144/33 101/108/33
f 127/149/3 126/150/3 122/151/3
f 108/146/27 118/152/27 110/130/27
f 110/130/29 115/153/29 107/131/29
f 113/147/7 119/154/7 111/148/7
f 107/131/16 121/155/16 113/147/16
f 136/156/3 117/143/3 114/140/3
f 123/157/3 125/158/3 122/159/3
f 129/160/3 131/161/3 122/162/3
f 134/163/3 133/164/3 122/165/3
f 138/166/3 121/155/3 115/153/3
f 118/152/3 116/145/3 135/167/3
f 137/168/3 120/142/3 119/169/3
f 115/153/3 118/152/3 138/170/3
f 121/155/3 137/171/3 119/154/3
f 129/160/34 132/172/34 121/155/34
f 120/142/3 136/173/3 114/140/3
f 134/163/35 128/174/35 120/142/35
f 117/143/3 135/175/3 116/145/3
f 135/175/36 117/143/36 124/176/36
f 118/152/37 123/157/37 130/177/37
f 83/178/29 140/179/29 62/180/29
f 94/181/28 143/182/28 57/183/28
f 73/184/27 146/185/27 83/178/27
f 80/186/26 145/187/26 73/184/26
f 89/188/18 141/189/18 94/181/18
f 62/180/16 139/190/16 97/191/16
f 57/183/11 144/192/11 80/186/11
f 97/191/7 142/193/7 89/194/7
f 146/185/38 147/119/38 140/179/38
f 143/182/39 151/125/39 149/107/39
f 146/185/40 153/138/40 154/139/40
f 144/192/41 153/138/41 145/187/41
f 141/189/42 148/123/42 151/125/42
f 139/190/43 147/119/43 150/30/43
f 144/192/44 149/107/44 152/109/44
f 139/190/45 148/32/45 142/193/45
f 40/1/1 4/100/1 25/2/1
f 4/4/2 8/96/2 26/5/2
f 31/7/3 6/10/3 27/8/3
f 6/10/4 2/195/4 24/11/4
f 34/12/5 5/56/5 1/13/5
f 33/15/6 2/79/6 6/10/6
f 12/16/4 9/122/4 84/17/4
f 32/19/3 12/16/3 87/18/3
f 10/21/2 11/102/2 86/22/2
f 42/24/1 10/121/1 85/25/1
f 52/27/1 17/113/1 88/28/1
f 150/30/7 105/120/7 103/31/7
f 65/33/6 14/106/6 16/34/6
f 66/36/5 15/45/5 13/37/5
f 61/35/3 16/34/3 28/39/3
f 50/41/1 14/106/1 29/42/1
f 63/44/3 23/110/3 15/45/3
f 53/46/1 22/114/1 13/47/1
f 47/49/1 18/127/1 3/50/1
f 18/52/2 19/94/2 7/53/2
f 37/55/3 20/57/3 5/56/3
f 20/57/4 21/128/4 1/58/4
f 54/43/1 29/42/1 74/59/1
f 64/40/46 28/39/46 73/61/46
f 27/8/4 24/11/4 75/63/4
f 39/9/3 27/8/3 72/64/3
f 25/6/2 26/5/2 71/66/2
f 49/3/1 25/2/1 70/68/1
f 80/70/47 59/88/47 39/9/47
f 24/71/1 38/80/1 77/72/1
f 58/74/3 37/55/3 34/12/3
f 21/76/1 36/111/1 30/77/1
f 2/79/1 33/15/1 38/80/1
f 9/81/1 35/112/1 90/82/1
f 57/84/17 32/19/17 91/20/17
f 50/41/6 33/15/6 31/7/6
f 51/75/5 34/12/5 30/14/5
f 56/86/3 31/7/3 39/9/3
f 69/89/1 49/3/1 78/69/1
f 26/5/3 48/97/3 79/91/3
f 68/92/1 47/49/1 43/51/1
f 19/94/3 46/115/3 41/95/3
f 8/96/3 44/101/3 48/97/3
f 7/53/5 41/95/5 43/98/5
f 4/100/6 40/1/6 44/101/6
f 11/102/3 45/118/3 92/103/3
f 67/104/1 42/24/1 93/26/1
f 65/33/1 40/1/1 49/3/1
f 16/34/3 56/86/3 59/88/3
f 15/45/5 51/75/5 55/87/5
f 14/106/6 50/41/6 56/86/6
f 149/107/11 98/135/11 101/108/11
f 23/110/3 58/74/3 51/75/3
f 73/61/46 28/39/46 59/88/46
f 38/80/1 54/43/1 81/60/1
f 36/111/1 53/46/1 55/48/1
f 33/15/1 50/41/1 54/43/1
f 35/112/1 52/27/1 95/29/1
f 14/106/1 65/33/1 69/89/1
f 17/113/1 67/104/1 96/105/1
f 22/114/1 68/92/1 60/93/1
f 29/42/1 69/89/1 82/90/1
f 48/97/47 64/40/47 83/62/47
f 46/115/3 63/44/3 66/36/3
f 44/101/3 61/35/3 64/40/3
f 41/95/5 66/36/5 60/38/5
f 40/1/6 65/33/6 61/35/6
f 92/103/15 45/118/15 62/116/15
f 79/91/48 83/62/48 62/116/48
f 74/59/1 82/90/1 67/104/1
f 77/72/1 81/60/1 52/27/1
f 147/119/16 99/129/16 105/120/16
f 71/66/3 79/91/3 45/118/3
f 82/90/1 78/69/1 42/24/1
f 75/73/1 77/72/1 35/112/1
f 57/84/49 80/70/49 76/65/49
f 78/69/1 70/68/1 10/121/1
f 70/67/2 71/66/2 11/102/2
f 76/65/3 72/64/3 12/16/3
f 72/64/4 75/63/4 9/122/4
f 148/123/18 103/136/18 104/124/18
f 81/60/1 74/59/1 17/113/1
f 46/115/13 92/103/13 97/117/13
f 88/28/1 96/105/1 68/92/1
f 90/82/1 95/29/1 53/46/1
f 89/126/50 94/85/50 58/74/50
f 96/105/1 93/26/1 47/49/1
f 86/22/3 92/103/3 46/115/3
f 94/85/9 91/20/9 37/55/9
f 84/83/1 90/82/1 36/111/1
f 63/44/51 97/117/51 89/126/51
f 95/29/1 88/28/1 22/114/1
f 93/26/1 85/25/1 18/127/1
f 85/23/2 86/22/2 19/94/2
f 91/20/3 87/18/3 20/57/3
f 87/18/4 84/17/4 21/128/4
f 99/129/22 102/133/22 110/130/22
f 100/132/23 108/146/23 110/130/23
f 104/124/24 112/137/24 106/134/24
f 103/136/52 111/141/52 112/137/52
f 152/109/26 101/108/26 100/132/26
f 153/138/27 100/132/27 102/133/27
f 151/125/28 104/124/28 98/135/28
f 154/139/29 102/133/29 99/129/29
f 112/137/28 120/142/28 114/140/28
f 111/141/18 119/169/18 120/142/18
f 106/134/11 114/140/11 117/143/11
f 109/144/26 117/143/26 116/145/26
f 103/31/30 105/120/30 113/147/30
f 99/129/53 107/131/53 113/147/53
f 100/132/32 101/108/32 109/144/32
f 98/135/33 106/134/33 109/144/33
f 122/151/3 125/196/3 124/176/3
f 124/176/3 127/149/3 122/151/3
f 108/146/27 116/145/27 118/152/27
f 110/130/29 118/152/29 115/153/29
f 113/147/7 121/155/7 119/154/7
f 107/131/16 115/153/16 121/155/16
f 122/159/3 131/197/3 130/177/3
f 130/177/3 123/157/3 122/159/3
f 122/162/3 133/198/3 132/172/3
f 132/172/3 129/160/3 122/162/3
f 122/165/3 126/199/3 128/174/3
f 128/174/3 134/163/3 122/165/3
f 132/172/54 133/198/54 137/171/54
f 137/171/55 121/155/55 132/172/55
f 121/155/56 138/166/56 129/160/56
f 138/166/57 131/161/57 129/160/57
f 128/174/58 126/199/58 136/173/58
f 136/173/59 120/142/59 128/174/59
f 120/142/60 137/168/60 134/163/60
f 137/168/61 133/164/61 134/163/61
f 136/156/62 126/150/62 127/149/62
f 124/176/63 125/196/63 135/175/63
f 136/156/64 127/149/64 117/143/64
f 127/149/65 124/176/65 117/143/65
f 131/197/66 138/170/66 130/177/66
f 138/170/67 118/152/67 130/177/67
f 118/152/68 135/167/68 123/157/68
f 135/167/69 125/158/69 123/157/69
f 83/178/29 146/185/29 140/179/29
f 94/181/28 141/189/28 143/182/28
f 73/184/27 145/187/27 146/185/27
f 80/186/26 144/192/26 145/187/26
f 89/188/18 142/200/18 141/189/18
f 62/180/16 140/179/16 139/190/16
f 57/183/11 143/182/11 144/192/11
f 97/191/7 139/190/7 142/193/7
f 146/185/38 154/139/38 147/119/38
f 143/182/39 141/189/39 151/125/39
f 146/185/40 145/187/40 153/138/40
f 144/192/41 152/109/41 153/138/41
f 141/189/42 142/200/42 148/123/42
f 139/190/43 140/179/43 147/119/43
f 144/192/44 143/182/44 149/107/44
f 139/190/70 150/30/70 148/32/70
