# Blender v3.2.0 OBJ File: 'tank_taiya.blend'
# www.blender.org
mtllib tank_taiya.mtl
o taiya2_立方体.002
v 0.798971 0.417033 -0.451081
v 0.798971 1.297069 -0.451081
v 0.795844 0.417033 0.439682
v 0.795844 1.297069 0.439682
v 0.956269 0.320609 -0.548129
v 0.863033 0.352849 -0.515823
v 0.776305 0.595988 -0.516127
v 0.764919 0.857051 -0.548801
v 0.776305 1.118114 -0.516127
v 0.863033 1.361253 -0.515823
v 0.956269 1.393493 -0.548129
v 0.859450 0.352849 0.504872
v 0.952457 0.320609 0.537832
v 0.952457 1.393493 0.537832
v 0.859450 1.361253 0.504872
v 0.772722 1.118114 0.504567
v 0.761107 0.857051 0.537160
v 0.772722 0.595988 0.504567
v 0.775441 0.352849 -0.270025
v 0.763013 0.320609 -0.005820
v 0.773586 0.352849 0.258465
v 0.773586 1.361253 0.258465
v 0.763013 1.393493 -0.005820
v 0.775441 1.361253 -0.270025
v 0.857397 0.578821 -0.654854
v 0.852231 0.857051 -0.701940
v 0.857397 1.135281 -0.654854
v 0.956808 0.563875 -0.701573
v 0.956988 0.857051 -0.752950
v 0.956808 1.150227 -0.701573
v 0.951919 0.563875 0.691275
v 0.951738 0.857051 0.742652
v 0.951919 1.150227 0.691275
v 0.852839 0.578821 0.643860
v 0.847342 0.857051 0.690908
v 0.852839 1.135281 0.643860
v 0.817103 0.578821 0.275994
v 0.800333 0.857051 0.327918
v 0.817103 1.135281 0.275994
v 0.801504 0.490095 -0.005685
v 0.801504 1.207362 -0.005685
v 0.819080 0.578821 -0.287248
v 0.802720 0.857051 -0.352012
v 0.819080 1.135281 -0.287248
v 0.955405 0.169013 -0.301898
v 0.954363 0.118255 -0.005149
v 0.953322 0.169013 0.291600
v 0.856107 0.215513 -0.287118
v 0.849787 0.169013 -0.005516
v 0.854130 0.215514 0.276124
v 0.953322 1.545089 0.291600
v 0.954363 1.595847 -0.005149
v 0.955405 1.545089 -0.301898
v 0.854130 1.498589 0.276124
v 0.849787 1.545089 -0.005516
v 0.856107 1.498589 -0.287118
v 1.112882 0.417033 -0.449979
v 1.112882 1.297069 -0.449979
v 1.109755 0.417033 0.440784
v 1.109755 1.297069 0.440784
v 1.049276 0.352849 -0.515169
v 1.136005 0.595988 -0.514865
v 1.147619 0.857051 -0.547457
v 1.136005 1.118114 -0.514865
v 1.049276 1.361253 -0.515169
v 1.045694 0.352849 0.505525
v 1.045694 1.361253 0.505525
v 1.132422 1.118114 0.505830
v 1.143807 0.857051 0.538503
v 1.132422 0.595988 0.505830
v 1.135141 0.352849 -0.268762
v 1.145713 0.320609 -0.004477
v 1.133286 0.352849 0.259727
v 1.133286 1.361253 0.259727
v 1.145713 1.393493 -0.004477
v 1.135141 1.361253 -0.268762
v 1.055888 0.578821 -0.654157
v 1.061384 0.857051 -0.701206
v 1.055888 1.135281 -0.654157
v 1.051329 0.578821 0.644557
v 1.056495 0.857051 0.691642
v 1.051329 1.135281 0.644557
v 1.090420 0.578821 0.276953
v 1.106825 0.857051 0.328994
v 1.090420 1.135281 0.276953
v 1.107996 0.490095 -0.004609
v 1.107996 1.207362 -0.004609
v 1.092397 0.578821 -0.286289
v 1.109211 0.857051 -0.350936
v 1.092397 1.135281 -0.286289
v 1.054597 0.215513 -0.286421
v 1.058940 0.169013 -0.004782
v 1.052620 0.215514 0.276821
v 1.052620 1.498589 0.276821
v 1.058940 1.545089 -0.004782
v 1.054597 1.498589 -0.286421
vt 0.437500 0.062500
vt 0.500000 0.062500
vt 0.500000 0.125000
vt 0.437500 0.125000
vt 0.562500 0.062500
vt 0.562500 0.125000
vt 0.375000 0.000000
vt 0.437500 0.000000
vt 0.375000 0.062500
vt 0.500000 0.000000
vt 0.562500 0.000000
vt 0.625000 0.000000
vt 0.625000 0.062500
vt 0.625000 0.125000
vt 0.375000 0.125000
vt 0.437500 0.625000
vt 0.500000 0.625000
vt 0.500000 0.687500
vt 0.437500 0.687500
vt 0.562500 0.625000
vt 0.562500 0.687500
vt 0.625000 0.625000
vt 0.625000 0.687500
vt 0.625000 0.750000
vt 0.562500 0.750000
vt 0.500000 0.750000
vt 0.437500 0.750000
vt 0.375000 0.687500
vt 0.375000 0.750000
vt 0.375000 0.625000
vt 0.437500 0.812500
vt 0.375000 0.812500
vt 0.500000 0.812500
vt 0.562500 0.812500
vt 0.625000 0.812500
vt 0.625000 0.875000
vt 0.562500 0.875000
vt 0.625000 0.937500
vt 0.562500 0.937500
vt 0.625000 1.000000
vt 0.562500 1.000000
vt 0.500000 0.937500
vt 0.500000 1.000000
vt 0.437500 0.937500
vt 0.437500 1.000000
vt 0.375000 0.937500
vt 0.375000 1.000000
vt 0.375000 0.875000
vt 0.437500 0.875000
vt 0.187500 0.625000
vt 0.250000 0.625000
vt 0.250000 0.687500
vt 0.187500 0.687500
vt 0.312500 0.625000
vt 0.312500 0.687500
vt 0.312500 0.750000
vt 0.250000 0.750000
vt 0.187500 0.750000
vt 0.125000 0.687500
vt 0.125000 0.750000
vt 0.125000 0.625000
vt 0.687500 0.625000
vt 0.750000 0.625000
vt 0.750000 0.687500
vt 0.687500 0.687500
vt 0.812500 0.625000
vt 0.812500 0.687500
vt 0.875000 0.625000
vt 0.875000 0.687500
vt 0.875000 0.750000
vt 0.812500 0.750000
vt 0.750000 0.750000
vt 0.687500 0.750000
vt 0.437500 0.062500
vt 0.500000 0.062500
vt 0.562500 0.062500
vt 0.375000 0.000000
vt 0.375000 0.062500
vt 0.437500 0.000000
vt 0.500000 0.000000
vt 0.562500 0.000000
vt 0.625000 0.062500
vt 0.625000 0.000000
vt 0.437500 0.687500
vt 0.500000 0.687500
vt 0.562500 0.687500
vt 0.625000 0.687500
vt 0.562500 0.750000
vt 0.625000 0.750000
vt 0.500000 0.750000
vt 0.437500 0.750000
vt 0.375000 0.687500
vt 0.375000 0.750000
vt 0.375000 0.812500
vt 0.437500 0.812500
vt 0.500000 0.812500
vt 0.562500 0.812500
vt 0.625000 0.812500
vt 0.562500 0.875000
vt 0.625000 0.875000
vt 0.562500 0.937500
vt 0.625000 0.937500
vt 0.562500 1.000000
vt 0.625000 1.000000
vt 0.500000 0.937500
vt 0.500000 1.000000
vt 0.437500 0.937500
vt 0.437500 1.000000
vt 0.375000 0.937500
vt 0.375000 1.000000
vt 0.375000 0.875000
vt 0.437500 0.875000
vt 0.187500 0.687500
vt 0.250000 0.687500
vt 0.312500 0.687500
vt 0.312500 0.750000
vt 0.250000 0.750000
vt 0.187500 0.750000
vt 0.125000 0.687500
vt 0.125000 0.750000
vt 0.687500 0.687500
vt 0.750000 0.687500
vt 0.812500 0.687500
vt 0.875000 0.687500
vt 0.812500 0.750000
vt 0.875000 0.750000
vt 0.750000 0.750000
vt 0.687500 0.750000
vn -0.4357 -0.1565 -0.8864
vn -0.4357 0.1565 -0.8864
vn -0.8295 -0.2965 -0.4732
vn -0.8644 -0.0994 -0.4929
vn -0.8644 0.0994 -0.4929
vn -0.8295 0.2965 -0.4732
vn -0.4310 0.4807 -0.7637
vn -0.4310 -0.4807 -0.7637
vn -0.4419 -0.1565 0.8833
vn -0.4419 0.1565 0.8833
vn -0.4363 0.4807 0.7606
vn -0.8328 0.2965 0.4674
vn -0.8678 0.0994 0.4868
vn -0.8678 -0.0994 0.4868
vn -0.8328 -0.2965 0.4674
vn -0.4363 -0.4807 0.7606
vn -0.9958 0.0637 -0.0664
vn -0.9822 -0.0224 -0.1867
vn -0.9822 0.0224 -0.1867
vn -0.9958 -0.0637 -0.0664
vn -0.9808 -0.1948 0.0098
vn -0.9807 -0.1948 -0.0167
vn -0.9962 -0.0637 0.0594
vn -0.9825 0.0171 0.1853
vn -0.9825 -0.0171 0.1853
vn -0.9962 0.0637 0.0594
vn -0.9791 0.2030 -0.0088
vn -0.9792 0.2030 0.0020
vn -0.4343 -0.8874 -0.1548
vn -0.4353 -0.8874 0.1517
vn -0.4335 -0.7681 0.4713
vn -0.8308 -0.4753 0.2895
vn -0.8640 -0.4944 0.0949
vn -0.8633 -0.4944 -0.1010
vn -0.8288 -0.4753 -0.2953
vn -0.4301 -0.7681 -0.4743
vn -0.4353 0.8874 0.1517
vn -0.4343 0.8874 -0.1548
vn -0.4301 0.7681 -0.4743
vn -0.8288 0.4753 -0.2953
vn -0.8633 0.4944 -0.1010
vn -0.8640 0.4944 0.0949
vn -0.8308 0.4753 0.2895
vn -0.4335 0.7681 0.4713
vn 0.4419 -0.1565 -0.8833
vn 0.4419 0.1565 -0.8833
vn 0.8328 -0.2965 -0.4674
vn 0.8678 -0.0994 -0.4868
vn 0.8678 0.0994 -0.4868
vn 0.8328 0.2965 -0.4674
vn 0.4363 0.4807 -0.7606
vn 0.4363 -0.4807 -0.7606
vn 0.4357 -0.1565 0.8864
vn 0.4357 0.1565 0.8864
vn 0.4310 0.4807 0.7637
vn 0.8295 0.2965 0.4732
vn 0.8644 0.0994 0.4929
vn 0.8644 -0.0994 0.4929
vn 0.8295 -0.2965 0.4732
vn 0.4310 -0.4807 0.7637
vn 0.9965 0.0613 -0.0571
vn 0.9841 -0.0230 -0.1764
vn 0.9841 0.0230 -0.1764
vn 0.9965 -0.0613 -0.0571
vn 0.9814 -0.1912 0.0174
vn 0.9815 -0.1912 -0.0105
vn 0.9961 -0.0613 0.0641
vn 0.9819 0.0177 0.1887
vn 0.9819 -0.0177 0.1887
vn 0.9961 0.0613 0.0641
vn 0.9799 0.1993 -0.0028
vn 0.9799 0.1993 0.0097
vn 0.4353 -0.8874 -0.1517
vn 0.4343 -0.8874 0.1548
vn 0.4301 -0.7681 0.4743
vn 0.8288 -0.4753 0.2953
vn 0.8633 -0.4944 0.1010
vn 0.8640 -0.4944 -0.0949
vn 0.8308 -0.4753 -0.2895
vn 0.4335 -0.7681 -0.4713
vn 0.4343 0.8874 0.1548
vn 0.4353 0.8874 -0.1517
vn 0.4335 0.7681 -0.4713
vn 0.8308 0.4753 -0.2895
vn 0.8640 0.4944 -0.0949
vn 0.8633 0.4944 0.1010
vn 0.8288 0.4753 0.2953
vn 0.4301 0.7681 0.4743
vn 0.0009 -0.9688 -0.2480
vn 0.0035 -0.1837 -0.9830
vn 0.0035 0.1837 -0.9830
vn 0.0011 0.9538 -0.3005
vn -0.0011 0.9538 0.3005
vn -0.0034 0.2265 0.9740
vn -0.0034 -0.2265 0.9740
vn -0.0009 -0.9688 0.2480
usemtl マテリアル.001
s off
f 25/1/1 26/2/1 29/3/1 28/4/1
f 26/2/2 27/5/2 30/6/2 29/3/2
f 1/7/3 7/8/3 25/1/3 6/9/3
f 7/8/4 8/10/4 26/2/4 25/1/4
f 8/10/5 9/11/5 27/5/5 26/2/5
f 9/11/6 2/12/6 10/13/6 27/5/6
f 27/5/7 10/13/7 11/14/7 30/6/7
f 6/9/8 25/1/8 28/4/8 5/15/8
f 31/16/9 32/17/9 35/18/9 34/19/9
f 32/17/10 33/20/10 36/21/10 35/18/10
f 33/20/11 14/22/11 15/23/11 36/21/11
f 36/21/12 15/23/12 4/24/12 16/25/12
f 35/18/13 36/21/13 16/25/13 17/26/13
f 34/19/14 35/18/14 17/26/14 18/27/14
f 12/28/15 34/19/15 18/27/15 3/29/15
f 13/30/16 31/16/16 34/19/16 12/28/16
f 3/29/17 18/27/17 37/31/17 21/32/17
f 18/27/18 17/26/18 38/33/18 37/31/18
f 17/26/19 16/25/19 39/34/19 38/33/19
f 16/25/20 4/24/20 22/35/20 39/34/20
f 39/34/21 22/35/21 23/36/21 41/37/21
f 41/37/22 23/36/22 24/38/22 44/39/22
f 44/39/23 24/38/23 2/40/23 9/41/23
f 43/42/24 44/39/24 9/41/24 8/43/24
f 42/44/25 43/42/25 8/43/25 7/45/25
f 19/46/26 42/44/26 7/45/26 1/47/26
f 20/48/27 40/49/27 42/44/27 19/46/27
f 21/32/28 37/31/28 40/49/28 20/48/28
f 45/50/29 46/51/29 49/52/29 48/53/29
f 46/51/30 47/54/30 50/55/30 49/52/30
f 47/54/31 13/30/31 12/28/31 50/55/31
f 50/55/32 12/28/32 3/29/32 21/56/32
f 49/52/33 50/55/33 21/56/33 20/57/33
f 48/53/34 49/52/34 20/57/34 19/58/34
f 6/59/35 48/53/35 19/58/35 1/60/35
f 5/61/36 45/50/36 48/53/36 6/59/36
f 51/62/37 52/63/37 55/64/37 54/65/37
f 52/63/38 53/66/38 56/67/38 55/64/38
f 53/66/39 11/68/39 10/69/39 56/67/39
f 56/67/40 10/69/40 2/70/40 24/71/40
f 55/64/41 56/67/41 24/71/41 23/72/41
f 54/65/42 55/64/42 23/72/42 22/73/42
f 15/23/43 54/65/43 22/73/43 4/24/43
f 14/22/44 51/62/44 54/65/44 15/23/44
f 77/74/45 28/4/45 29/3/45 78/75/45
f 78/75/46 29/3/46 30/6/46 79/76/46
f 57/77/47 61/78/47 77/74/47 62/79/47
f 62/79/48 77/74/48 78/75/48 63/80/48
f 63/80/49 78/75/49 79/76/49 64/81/49
f 64/81/50 79/76/50 65/82/50 58/83/50
f 79/76/51 30/6/51 11/14/51 65/82/51
f 61/78/52 5/15/52 28/4/52 77/74/52
f 31/16/53 80/84/53 81/85/53 32/17/53
f 32/17/54 81/85/54 82/86/54 33/20/54
f 33/20/55 82/86/55 67/87/55 14/22/55
f 82/86/56 68/88/56 60/89/56 67/87/56
f 81/85/57 69/90/57 68/88/57 82/86/57
f 80/84/58 70/91/58 69/90/58 81/85/58
f 66/92/59 59/93/59 70/91/59 80/84/59
f 13/30/60 66/92/60 80/84/60 31/16/60
f 59/93/61 73/94/61 83/95/61 70/91/61
f 70/91/62 83/95/62 84/96/62 69/90/62
f 69/90/63 84/96/63 85/97/63 68/88/63
f 68/88/64 85/97/64 74/98/64 60/89/64
f 85/97/65 87/99/65 75/100/65 74/98/65
f 87/99/66 90/101/66 76/102/66 75/100/66
f 90/101/67 64/103/67 58/104/67 76/102/67
f 89/105/68 63/106/68 64/103/68 90/101/68
f 88/107/69 62/108/69 63/106/69 89/105/69
f 71/109/70 57/110/70 62/108/70 88/107/70
f 72/111/71 71/109/71 88/107/71 86/112/71
f 73/94/72 72/111/72 86/112/72 83/95/72
f 45/50/73 91/113/73 92/114/73 46/51/73
f 46/51/74 92/114/74 93/115/74 47/54/74
f 47/54/75 93/115/75 66/92/75 13/30/75
f 93/115/76 73/116/76 59/93/76 66/92/76
f 92/114/77 72/117/77 73/116/77 93/115/77
f 91/113/78 71/118/78 72/117/78 92/114/78
f 61/119/79 57/120/79 71/118/79 91/113/79
f 5/61/80 61/119/80 91/113/80 45/50/80
f 51/62/81 94/121/81 95/122/81 52/63/81
f 52/63/82 95/122/82 96/123/82 53/66/82
f 53/66/83 96/123/83 65/124/83 11/68/83
f 96/123/84 76/125/84 58/126/84 65/124/84
f 95/122/85 75/127/85 76/125/85 96/123/85
f 94/121/86 74/128/86 75/127/86 95/122/86
f 67/87/87 60/89/87 74/128/87 94/121/87
f 14/22/88 67/87/88 94/121/88 51/62/88
f 41/37/89 87/99/89 85/97/89 39/34/89
f 39/34/90 85/97/90 84/96/90 38/33/90
f 38/33/91 84/96/91 83/95/91 37/31/91
f 40/49/92 37/31/92 83/95/92 86/112/92
f 42/44/93 40/49/93 86/112/93 88/107/93
f 43/42/94 42/44/94 88/107/94 89/105/94
f 44/39/95 43/42/95 89/105/95 90/101/95
f 44/39/96 90/101/96 87/99/96 41/37/96
o taiya1_立方体.001
v -1.109756 0.417033 -0.457781
v -1.109756 1.297069 -0.457781
v -1.112882 0.417033 0.432982
v -1.112882 1.297069 0.432982
v -0.952457 0.320609 -0.554829
v -1.045694 0.352849 -0.522523
v -1.132422 0.595988 -0.522827
v -1.143808 0.857051 -0.555501
v -1.132422 1.118114 -0.522827
v -1.045694 1.361253 -0.522523
v -0.952457 1.393493 -0.554829
v -1.049276 0.352849 0.498172
v -0.956269 0.320609 0.531132
v -0.956269 1.393493 0.531132
v -1.049276 1.361253 0.498172
v -1.136004 1.118114 0.497867
v -1.147619 0.857051 0.530460
v -1.136004 0.595988 0.497867
v -1.133286 0.352849 -0.276725
v -1.145713 0.320609 -0.012520
v -1.135141 0.352849 0.251765
v -1.135141 1.361253 0.251765
v -1.145713 1.393493 -0.012520
v -1.133286 1.361253 -0.276725
v -1.051329 0.578821 -0.661554
v -1.056495 0.857051 -0.708640
v -1.051329 1.135281 -0.661554
v -0.951919 0.563875 -0.708273
v -0.951739 0.857051 -0.759650
v -0.951919 1.150227 -0.708273
v -0.956808 0.563875 0.684575
v -0.956988 0.857051 0.735952
v -0.956808 1.150227 0.684575
v -1.055888 0.578821 0.637160
v -1.061384 0.857051 0.684208
v -1.055888 1.135281 0.637160
v -1.091624 0.578821 0.269294
v -1.108393 0.857051 0.321218
v -1.091624 1.135281 0.269294
v -1.107222 0.490095 -0.012385
v -1.107222 1.207362 -0.012385
v -1.089647 0.578821 -0.293948
v -1.106007 0.857051 -0.358712
v -1.089647 1.135281 -0.293948
v -0.953322 0.169013 -0.308598
v -0.954363 0.118255 -0.011849
v -0.955405 0.169013 0.284900
v -1.052620 0.215513 -0.293818
v -1.058940 0.169013 -0.012216
v -1.054597 0.215514 0.269424
v -0.955405 1.545089 0.284900
v -0.954363 1.595847 -0.011849
v -0.953322 1.545089 -0.308598
v -1.054597 1.498589 0.269424
v -1.058940 1.545089 -0.012216
v -1.052620 1.498589 -0.293818
v -0.795845 0.417033 -0.456679
v -0.795845 1.297069 -0.456679
v -0.798971 0.417033 0.434084
v -0.798971 1.297069 0.434083
v -0.859450 0.352849 -0.521869
v -0.772722 0.595988 -0.521565
v -0.761107 0.857051 -0.554157
v -0.772722 1.118114 -0.521565
v -0.859450 1.361253 -0.521869
v -0.863033 0.352849 0.498825
v -0.863033 1.361253 0.498825
v -0.776305 1.118114 0.499130
v -0.764919 0.857051 0.531803
v -0.776305 0.595988 0.499130
v -0.773586 0.352849 -0.275462
v -0.763013 0.320609 -0.011177
v -0.775441 0.352849 0.253027
v -0.775441 1.361253 0.253027
v -0.763013 1.393493 -0.011177
v -0.773586 1.361253 -0.275462
v -0.852839 0.578821 -0.660857
v -0.847342 0.857051 -0.707906
v -0.852839 1.135281 -0.660857
v -0.857397 0.578821 0.637857
v -0.852231 0.857051 0.684942
v -0.857397 1.135281 0.637857
v -0.818306 0.578821 0.270253
v -0.801902 0.857051 0.322293
v -0.818306 1.135281 0.270253
v -0.800731 0.490095 -0.011310
v -0.800731 1.207362 -0.011310
v -0.816329 0.578821 -0.292989
v -0.799515 0.857051 -0.357636
v -0.816329 1.135281 -0.292989
v -0.854130 0.215513 -0.293121
v -0.849787 0.169013 -0.011482
v -0.856107 0.215514 0.270121
v -0.856107 1.498589 0.270121
v -0.849787 1.545089 -0.011482
v -0.854130 1.498589 -0.293121
vt 0.437500 0.062500
vt 0.500000 0.062500
vt 0.500000 0.125000
vt 0.437500 0.125000
vt 0.562500 0.062500
vt 0.562500 0.125000
vt 0.375000 0.000000
vt 0.437500 0.000000
vt 0.375000 0.062500
vt 0.500000 0.000000
vt 0.562500 0.000000
vt 0.625000 0.000000
vt 0.625000 0.062500
vt 0.625000 0.125000
vt 0.375000 0.125000
vt 0.437500 0.625000
vt 0.500000 0.625000
vt 0.500000 0.687500
vt 0.437500 0.687500
vt 0.562500 0.625000
vt 0.562500 0.687500
vt 0.625000 0.625000
vt 0.625000 0.687500
vt 0.625000 0.750000
vt 0.562500 0.750000
vt 0.500000 0.750000
vt 0.437500 0.750000
vt 0.375000 0.687500
vt 0.375000 0.750000
vt 0.375000 0.625000
vt 0.437500 0.812500
vt 0.375000 0.812500
vt 0.500000 0.812500
vt 0.562500 0.812500
vt 0.625000 0.812500
vt 0.625000 0.875000
vt 0.562500 0.875000
vt 0.625000 0.937500
vt 0.562500 0.937500
vt 0.625000 1.000000
vt 0.562500 1.000000
vt 0.500000 0.937500
vt 0.500000 1.000000
vt 0.437500 0.937500
vt 0.437500 1.000000
vt 0.375000 0.937500
vt 0.375000 1.000000
vt 0.375000 0.875000
vt 0.437500 0.875000
vt 0.187500 0.625000
vt 0.250000 0.625000
vt 0.250000 0.687500
vt 0.187500 0.687500
vt 0.312500 0.625000
vt 0.312500 0.687500
vt 0.312500 0.750000
vt 0.250000 0.750000
vt 0.187500 0.750000
vt 0.125000 0.687500
vt 0.125000 0.750000
vt 0.125000 0.625000
vt 0.687500 0.625000
vt 0.750000 0.625000
vt 0.750000 0.687500
vt 0.687500 0.687500
vt 0.812500 0.625000
vt 0.812500 0.687500
vt 0.875000 0.625000
vt 0.875000 0.687500
vt 0.875000 0.750000
vt 0.812500 0.750000
vt 0.750000 0.750000
vt 0.687500 0.750000
vt 0.437500 0.062500
vt 0.500000 0.062500
vt 0.562500 0.062500
vt 0.375000 0.000000
vt 0.375000 0.062500
vt 0.437500 0.000000
vt 0.500000 0.000000
vt 0.562500 0.000000
vt 0.625000 0.062500
vt 0.625000 0.000000
vt 0.437500 0.687500
vt 0.500000 0.687500
vt 0.562500 0.687500
vt 0.625000 0.687500
vt 0.562500 0.750000
vt 0.625000 0.750000
vt 0.500000 0.750000
vt 0.437500 0.750000
vt 0.375000 0.687500
vt 0.375000 0.750000
vt 0.375000 0.812500
vt 0.437500 0.812500
vt 0.500000 0.812500
vt 0.562500 0.812500
vt 0.625000 0.812500
vt 0.562500 0.875000
vt 0.625000 0.875000
vt 0.562500 0.937500
vt 0.625000 0.937500
vt 0.562500 1.000000
vt 0.625000 1.000000
vt 0.500000 0.937500
vt 0.500000 1.000000
vt 0.437500 0.937500
vt 0.437500 1.000000
vt 0.375000 0.937500
vt 0.375000 1.000000
vt 0.375000 0.875000
vt 0.437500 0.875000
vt 0.187500 0.687500
vt 0.250000 0.687500
vt 0.312500 0.687500
vt 0.312500 0.750000
vt 0.250000 0.750000
vt 0.187500 0.750000
vt 0.125000 0.687500
vt 0.125000 0.750000
vt 0.687500 0.687500
vt 0.750000 0.687500
vt 0.812500 0.687500
vt 0.875000 0.687500
vt 0.812500 0.750000
vt 0.875000 0.750000
vt 0.750000 0.750000
vt 0.687500 0.750000
vn -0.4357 -0.1565 -0.8864
vn -0.4357 0.1565 -0.8864
vn -0.8295 -0.2965 -0.4732
vn -0.8644 -0.0994 -0.4929
vn -0.8644 0.0994 -0.4929
vn -0.8295 0.2965 -0.4732
vn -0.4310 0.4807 -0.7637
vn -0.4310 -0.4807 -0.7637
vn -0.4419 -0.1565 0.8833
vn -0.4419 0.1565 0.8833
vn -0.4363 0.4807 0.7606
vn -0.8328 0.2965 0.4674
vn -0.8678 0.0994 0.4868
vn -0.8678 -0.0994 0.4868
vn -0.8328 -0.2965 0.4674
vn -0.4363 -0.4807 0.7606
vn -0.9958 0.0637 -0.0664
vn -0.9822 -0.0224 -0.1867
vn -0.9822 0.0224 -0.1867
vn -0.9958 -0.0637 -0.0664
vn -0.9808 -0.1948 0.0098
vn -0.9807 -0.1948 -0.0167
vn -0.9962 -0.0637 0.0594
vn -0.9825 0.0171 0.1853
vn -0.9825 -0.0171 0.1853
vn -0.9962 0.0637 0.0594
vn -0.9791 0.2030 -0.0088
vn -0.9792 0.2030 0.0020
vn -0.4343 -0.8874 -0.1548
vn -0.4353 -0.8874 0.1517
vn -0.4335 -0.7681 0.4713
vn -0.8308 -0.4753 0.2895
vn -0.8640 -0.4944 0.0949
vn -0.8633 -0.4944 -0.1010
vn -0.8288 -0.4753 -0.2953
vn -0.4301 -0.7681 -0.4743
vn -0.4353 0.8874 0.1517
vn -0.4343 0.8874 -0.1548
vn -0.4301 0.7681 -0.4743
vn -0.8288 0.4753 -0.2953
vn -0.8633 0.4944 -0.1010
vn -0.8640 0.4944 0.0949
vn -0.8308 0.4753 0.2895
vn -0.4335 0.7681 0.4713
vn 0.4419 -0.1565 -0.8833
vn 0.4419 0.1565 -0.8833
vn 0.8328 -0.2965 -0.4674
vn 0.8678 -0.0994 -0.4868
vn 0.8678 0.0994 -0.4868
vn 0.8328 0.2965 -0.4674
vn 0.4363 0.4807 -0.7606
vn 0.4363 -0.4807 -0.7606
vn 0.4357 -0.1565 0.8864
vn 0.4357 0.1565 0.8864
vn 0.4310 0.4807 0.7637
vn 0.8295 0.2965 0.4732
vn 0.8644 0.0994 0.4929
vn 0.8644 -0.0994 0.4929
vn 0.8295 -0.2965 0.4732
vn 0.4310 -0.4807 0.7637
vn 0.9965 0.0613 -0.0571
vn 0.9841 -0.0230 -0.1764
vn 0.9841 0.0230 -0.1764
vn 0.9965 -0.0613 -0.0571
vn 0.9814 -0.1912 0.0174
vn 0.9815 -0.1912 -0.0105
vn 0.9961 -0.0613 0.0641
vn 0.9819 0.0177 0.1887
vn 0.9819 -0.0177 0.1887
vn 0.9961 0.0613 0.0641
vn 0.9799 0.1993 -0.0028
vn 0.9799 0.1993 0.0097
vn 0.4353 -0.8874 -0.1517
vn 0.4343 -0.8874 0.1548
vn 0.4301 -0.7681 0.4743
vn 0.8288 -0.4753 0.2953
vn 0.8633 -0.4944 0.1010
vn 0.8640 -0.4944 -0.0949
vn 0.8308 -0.4753 -0.2895
vn 0.4335 -0.7681 -0.4713
vn 0.4343 0.8874 0.1548
vn 0.4353 0.8874 -0.1517
vn 0.4335 0.7681 -0.4713
vn 0.8308 0.4753 -0.2895
vn 0.8640 0.4944 -0.0949
vn 0.8633 0.4944 0.1010
vn 0.8288 0.4753 0.2953
vn 0.4301 0.7681 0.4743
vn 0.0009 -0.9688 -0.2480
vn 0.0035 -0.1837 -0.9830
vn 0.0035 0.1837 -0.9830
vn 0.0011 0.9538 -0.3005
vn -0.0011 0.9538 0.3005
vn -0.0034 0.2265 0.9740
vn -0.0034 -0.2265 0.9740
vn -0.0009 -0.9688 0.2480
usemtl マテリアル.001
s off
f 121/129/97 122/130/97 125/131/97 124/132/97
f 122/130/98 123/133/98 126/134/98 125/131/98
f 97/135/99 103/136/99 121/129/99 102/137/99
f 103/136/100 104/138/100 122/130/100 121/129/100
f 104/138/101 105/139/101 123/133/101 122/130/101
f 105/139/102 98/140/102 106/141/102 123/133/102
f 123/133/103 106/141/103 107/142/103 126/134/103
f 102/137/104 121/129/104 124/132/104 101/143/104
f 127/144/105 128/145/105 131/146/105 130/147/105
f 128/145/106 129/148/106 132/149/106 131/146/106
f 129/148/107 110/150/107 111/151/107 132/149/107
f 132/149/108 111/151/108 100/152/108 112/153/108
f 131/146/109 132/149/109 112/153/109 113/154/109
f 130/147/110 131/146/110 113/154/110 114/155/110
f 108/156/111 130/147/111 114/155/111 99/157/111
f 109/158/112 127/144/112 130/147/112 108/156/112
f 99/157/113 114/155/113 133/159/113 117/160/113
f 114/155/114 113/154/114 134/161/114 133/159/114
f 113/154/115 112/153/115 135/162/115 134/161/115
f 112/153/116 100/152/116 118/163/116 135/162/116
f 135/162/117 118/163/117 119/164/117 137/165/117
f 137/165/118 119/164/118 120/166/118 140/167/118
f 140/167/119 120/166/119 98/168/119 105/169/119
f 139/170/120 140/167/120 105/169/120 104/171/120
f 138/172/121 139/170/121 104/171/121 103/173/121
f 115/174/122 138/172/122 103/173/122 97/175/122
f 116/176/123 136/177/123 138/172/123 115/174/123
f 117/160/124 133/159/124 136/177/124 116/176/124
f 141/178/125 142/179/125 145/180/125 144/181/125
f 142/179/126 143/182/126 146/183/126 145/180/126
f 143/182/127 109/158/127 108/156/127 146/183/127
f 146/183/128 108/156/128 99/157/128 117/184/128
f 145/180/129 146/183/129 117/184/129 116/185/129
f 144/181/130 145/180/130 116/185/130 115/186/130
f 102/187/131 144/181/131 115/186/131 97/188/131
f 101/189/132 141/178/132 144/181/132 102/187/132
f 147/190/133 148/191/133 151/192/133 150/193/133
f 148/191/134 149/194/134 152/195/134 151/192/134
f 149/194/135 107/196/135 106/197/135 152/195/135
f 152/195/136 106/197/136 98/198/136 120/199/136
f 151/192/137 152/195/137 120/199/137 119/200/137
f 150/193/138 151/192/138 119/200/138 118/201/138
f 111/151/139 150/193/139 118/201/139 100/152/139
f 110/150/140 147/190/140 150/193/140 111/151/140
f 173/202/141 124/132/141 125/131/141 174/203/141
f 174/203/142 125/131/142 126/134/142 175/204/142
f 153/205/143 157/206/143 173/202/143 158/207/143
f 158/207/144 173/202/144 174/203/144 159/208/144
f 159/208/145 174/203/145 175/204/145 160/209/145
f 160/209/146 175/204/146 161/210/146 154/211/146
f 175/204/147 126/134/147 107/142/147 161/210/147
f 157/206/148 101/143/148 124/132/148 173/202/148
f 127/144/149 176/212/149 177/213/149 128/145/149
f 128/145/150 177/213/150 178/214/150 129/148/150
f 129/148/151 178/214/151 163/215/151 110/150/151
f 178/214/152 164/216/152 156/217/152 163/215/152
f 177/213/153 165/218/153 164/216/153 178/214/153
f 176/212/154 166/219/154 165/218/154 177/213/154
f 162/220/155 155/221/155 166/219/155 176/212/155
f 109/158/156 162/220/156 176/212/156 127/144/156
f 155/221/157 169/222/157 179/223/157 166/219/157
f 166/219/158 179/223/158 180/224/158 165/218/158
f 165/218/159 180/224/159 181/225/159 164/216/159
f 164/216/160 181/225/160 170/226/160 156/217/160
f 181/225/161 183/227/161 171/228/161 170/226/161
f 183/227/162 186/229/162 172/230/162 171/228/162
f 186/229/163 160/231/163 154/232/163 172/230/163
f 185/233/164 159/234/164 160/231/164 186/229/164
f 184/235/165 158/236/165 159/234/165 185/233/165
f 167/237/166 153/238/166 158/236/166 184/235/166
f 168/239/167 167/237/167 184/235/167 182/240/167
f 169/222/168 168/239/168 182/240/168 179/223/168
f 141/178/169 187/241/169 188/242/169 142/179/169
f 142/179/170 188/242/170 189/243/170 143/182/170
f 143/182/171 189/243/171 162/220/171 109/158/171
f 189/243/172 169/244/172 155/221/172 162/220/172
f 188/242/173 168/245/173 169/244/173 189/243/173
f 187/241/174 167/246/174 168/245/174 188/242/174
f 157/247/175 153/248/175 167/246/175 187/241/175
f 101/189/176 157/247/176 187/241/176 141/178/176
f 147/190/177 190/249/177 191/250/177 148/191/177
f 148/191/178 191/250/178 192/251/178 149/194/178
f 149/194/179 192/251/179 161/252/179 107/196/179
f 192/251/180 172/253/180 154/254/180 161/252/180
f 191/250/181 171/255/181 172/253/181 192/251/181
f 190/249/182 170/256/182 171/255/182 191/250/182
f 163/215/183 156/217/183 170/256/183 190/249/183
f 110/150/184 163/215/184 190/249/184 147/190/184
f 137/165/185 183/227/185 181/225/185 135/162/185
f 135/162/186 181/225/186 180/224/186 134/161/186
f 134/161/187 180/224/187 179/223/187 133/159/187
f 136/177/188 133/159/188 179/223/188 182/240/188
f 138/172/189 136/177/189 182/240/189 184/235/189
f 139/170/190 138/172/190 184/235/190 185/233/190
f 140/167/191 139/170/191 185/233/191 186/229/191
f 140/167/192 186/229/192 183/227/192 137/165/192
