# Blender v3.2.0 OBJ File: 'tank.blend'
# www.blender.org
mtllib tank_body.mtl
o body_Cube
v 0.765524 1.901857 0.765524
v 0.765524 0.370808 0.765524
v -0.765524 1.901857 0.765524
v -0.765524 0.370808 0.765524
v 0.765524 1.901857 -0.765524
v 0.765524 0.370808 -0.765524
v -0.765524 1.901857 -0.765524
v -0.765524 0.370808 -0.765524
vt 0.625000 0.500000
vt 0.875000 0.500000
vt 0.875000 0.750000
vt 0.625000 0.750000
vt 0.375000 0.750000
vt 0.625000 1.000000
vt 0.375000 1.000000
vt 0.375000 0.000000
vt 0.625000 0.000000
vt 0.625000 0.250000
vt 0.375000 0.250000
vt 0.125000 0.500000
vt 0.375000 0.500000
vt 0.125000 0.750000
vn 0.0000 1.0000 0.0000
vn -1.0000 0.0000 0.0000
vn -0.0000 0.0000 -1.0000
vn 0.0000 -1.0000 -0.0000
vn 0.0000 0.0000 1.0000
vn 1.0000 0.0000 -0.0000
usemtl Material
s off
f 1/1/1 5/2/1 7/3/1 3/4/1
f 4/5/2 3/4/2 7/6/2 8/7/2
f 8/8/3 7/9/3 5/10/3 6/11/3
f 6/12/4 2/13/4 4/5/4 8/14/4
f 2/13/5 1/1/5 3/4/5 4/5/5
f 6/11/6 5/10/6 1/1/6 2/13/6
o body.001_Cube.001
v 0.772241 1.390498 -0.528640
v 0.772241 1.390498 0.528640
v 0.745067 1.178091 -0.605751
v 0.848008 1.466680 -0.605751
v 0.958537 1.504947 -0.644484
v 0.958537 1.504947 0.644484
v 0.848008 1.466680 0.605751
v 0.745067 1.178091 0.605751
v 0.745067 1.466680 0.313642
v 0.731417 1.504947 -0.000000
v 0.745067 1.466680 -0.313642
v 0.840739 1.118874 -0.727766
v 0.958537 1.136614 -0.783632
v 0.958538 1.101840 0.758235
v 0.840740 1.084100 0.702370
v 0.780688 1.198467 0.334267
v 0.761001 1.284022 -0.000000
v 0.780688 1.198467 -0.334267
v 0.958537 1.684880 0.352223
v 0.958537 1.745127 -0.000000
v 0.958537 1.684880 -0.352223
v 0.840739 1.629688 0.334267
v 0.834412 1.684880 -0.000000
v 0.840739 1.629688 -0.334267
v 1.144834 1.390498 -0.528640
v 1.144834 1.390498 0.528640
v 1.172008 1.178091 -0.605751
v 1.069067 1.466680 -0.605751
v 1.069067 1.466680 0.605751
v 1.172008 1.178091 0.605751
v 1.172008 1.466680 0.313642
v 1.185658 1.504947 -0.000000
v 1.172008 1.466680 -0.313642
v 1.076335 1.118874 -0.727766
v 1.076335 1.084100 0.702370
v 1.150929 1.198467 0.334267
v 1.170617 1.284022 -0.000000
v 1.150929 1.198467 -0.334267
v 1.076335 1.629688 0.334267
v 1.082663 1.684880 -0.000000
v 1.076335 1.629688 -0.334267
vt 0.000000 0.000000
vt 0.000000 0.000000
vt 0.000000 0.000000
vt 0.000000 0.000000
vt 0.000000 0.000000
vt 0.000000 0.000000
vt 0.000000 0.000000
vt 0.000000 0.000000
vt 0.000000 0.000000
vt 0.000000 0.000000
vt 0.000000 0.000000
vt 0.000000 0.000000
vt 0.000000 0.000000
vt 0.000000 0.000000
vt 0.000000 0.000000
vt 0.000000 0.000000
vt 0.000000 0.000000
vt 0.000000 0.000000
vt 0.000000 0.000000
vt 0.000000 0.000000
vt 0.000000 0.000000
vt 0.000000 0.000000
vt 0.000000 0.000000
vt 0.000000 0.000000
vt 0.000000 0.000000
vt 0.000000 0.000000
vt 0.000000 0.000000
vt 0.000000 0.000000
vt 0.000000 0.000000
vt 0.000000 0.000000
vt 0.000000 0.000000
vt 0.000000 0.000000
vt 0.000000 0.000000
vt 0.000000 0.000000
vt 0.000000 0.000000
vt 0.000000 0.000000
vt 0.000000 0.000000
vt 0.000000 0.000000
vt 0.000000 0.000000
vt 0.000000 0.000000
vt 0.000000 0.000000
vn -0.7418 0.2646 -0.6162
vn -0.4281 0.3135 -0.8476
vn -0.4210 0.2382 0.8752
vn -0.6781 0.2419 0.6940
vn -0.9995 -0.0220 -0.0217
vn -0.9910 -0.1310 0.0260
vn -0.9910 -0.1310 -0.0260
vn -0.9995 -0.0220 0.0217
vn -0.4348 0.8874 0.1532
vn -0.4348 0.8874 -0.1532
vn -0.4318 0.7681 -0.4728
vn -0.8298 0.4753 -0.2924
vn -0.8637 0.4944 -0.0980
vn -0.8637 0.4944 0.0980
vn -0.8298 0.4753 0.2924
vn -0.4318 0.7681 0.4728
vn 0.7418 0.2646 -0.6162
vn 0.4281 0.3135 -0.8476
vn 0.4210 0.2382 0.8752
vn 0.6781 0.2419 0.6940
vn 0.9998 0.0159 0.0157
vn 0.9967 -0.0720 0.0375
vn 0.9967 -0.0720 -0.0375
vn 0.9998 0.0159 -0.0157
vn 0.4348 0.8874 0.1532
vn 0.4348 0.8874 -0.1532
vn 0.4318 0.7681 -0.4728
vn 0.8298 0.4753 -0.2924
vn 0.8637 0.4944 -0.0980
vn 0.8637 0.4944 0.0980
vn 0.8298 0.4753 0.2924
vn 0.4318 0.7681 0.4728
vn -0.0000 -0.9688 -0.2480
vn 0.0000 -0.9688 0.2480
vn 0.0000 -0.9694 -0.2454
vn -0.0000 -0.9866 0.1630
usemtl Material
s off
f 11/15/7 9/16/7 12/17/7 20/18/7
f 20/18/8 12/17/8 13/19/8 21/20/8
f 22/21/9 14/22/9 15/23/9 23/24/9
f 23/24/10 15/23/10 10/25/10 16/26/10
f 16/26/11 10/25/11 17/27/11 24/28/11
f 24/28/12 17/27/12 18/29/12 25/30/12
f 25/30/13 18/29/13 19/31/13 26/32/13
f 26/32/14 19/31/14 9/16/14 11/15/14
f 27/33/15 28/34/15 31/35/15 30/36/15
f 28/34/16 29/37/16 32/38/16 31/35/16
f 29/37/17 13/19/17 12/17/17 32/38/17
f 32/38/18 12/17/18 9/16/18 19/31/18
f 31/35/19 32/38/19 19/31/19 18/29/19
f 30/36/20 31/35/20 18/29/20 17/27/20
f 15/23/21 30/36/21 17/27/21 10/25/21
f 14/22/22 27/33/22 30/36/22 15/23/22
f 35/39/23 42/40/23 36/41/23 33/42/23
f 42/40/24 21/20/24 13/19/24 36/41/24
f 22/21/25 43/43/25 37/44/25 14/22/25
f 43/43/26 38/45/26 34/46/26 37/44/26
f 38/45/27 44/47/27 39/48/27 34/46/27
f 44/47/28 45/49/28 40/50/28 39/48/28
f 45/49/29 46/51/29 41/52/29 40/50/29
f 46/51/30 35/39/30 33/42/30 41/52/30
f 27/33/31 47/53/31 48/54/31 28/34/31
f 28/34/32 48/54/32 49/55/32 29/37/32
f 29/37/33 49/55/33 36/41/33 13/19/33
f 49/55/34 41/52/34 33/42/34 36/41/34
f 48/54/35 40/50/35 41/52/35 49/55/35
f 47/53/36 39/48/36 40/50/36 48/54/36
f 37/44/37 34/46/37 39/48/37 47/53/37
f 14/22/38 37/44/38 47/53/38 27/33/38
f 25/30/39 45/49/39 44/47/39 24/28/39
f 26/32/40 46/51/40 45/49/40 25/30/40
f 23/24/41 16/26/41 24/28/41 44/47/41 38/45/41 43/43/41 22/21/41
f 21/20/42 42/40/42 35/39/42 46/51/42 26/32/42 11/15/42 20/18/42
o body.002_Cube.002
v -1.171458 1.390498 -0.528640
v -1.171458 1.390498 0.528640
v -1.198632 1.178091 -0.605751
v -1.095691 1.466680 -0.605751
v -0.985162 1.504947 -0.644484
v -0.985162 1.504947 0.644484
v -1.095691 1.466680 0.605751
v -1.198632 1.178091 0.605751
v -1.198632 1.466680 0.313642
v -1.212283 1.504947 0.000000
v -1.198632 1.466680 -0.313642
v -1.102960 1.118874 -0.727766
v -0.985162 1.136614 -0.783631
v -0.985162 1.101840 0.758235
v -1.102960 1.084100 0.702370
v -1.163011 1.198467 0.334267
v -1.182698 1.284022 0.000000
v -1.163011 1.198467 -0.334267
v -0.985162 1.684880 0.352223
v -0.985162 1.745127 0.000000
v -0.985162 1.684880 -0.352223
v -1.102960 1.629688 0.334267
v -1.109288 1.684880 0.000000
v -1.102960 1.629688 -0.334267
v -0.798865 1.390498 -0.528640
v -0.798865 1.390498 0.528640
v -0.771691 1.178091 -0.605751
v -0.874632 1.466680 -0.605751
v -0.874632 1.466680 0.605751
v -0.771691 1.178091 0.605751
v -0.771691 1.466680 0.313642
v -0.758041 1.504947 0.000000
v -0.771691 1.466680 -0.313642
v -0.867364 1.118874 -0.727766
v -0.867364 1.084100 0.702370
v -0.792770 1.198467 0.334267
v -0.773082 1.284022 0.000000
v -0.792770 1.198467 -0.334267
v -0.867364 1.629688 0.334267
v -0.861036 1.684880 0.000000
v -0.867364 1.629688 -0.334267
vt 0.000000 0.000000
vt 0.000000 0.000000
vt 0.000000 0.000000
vt 0.000000 0.000000
vt 0.000000 0.000000
vt 0.000000 0.000000
vt 0.000000 0.000000
vt 0.000000 0.000000
vt 0.000000 0.000000
vt 0.000000 0.000000
vt 0.000000 0.000000
vt 0.000000 0.000000
vt 0.000000 0.000000
vt 0.000000 0.000000
vt 0.000000 0.000000
vt 0.000000 0.000000
vt 0.000000 0.000000
vt 0.000000 0.000000
vt 0.000000 0.000000
vt 0.000000 0.000000
vt 0.000000 0.000000
vt 0.000000 0.000000
vt 0.000000 0.000000
vt 0.000000 0.000000
vt 0.000000 0.000000
vt 0.000000 0.000000
vt 0.000000 0.000000
vt 0.000000 0.000000
vt 0.000000 0.000000
vt 0.000000 0.000000
vt 0.000000 0.000000
vt 0.000000 0.000000
vt 0.000000 0.000000
vt 0.000000 0.000000
vt 0.000000 0.000000
vt 0.000000 0.000000
vt 0.000000 0.000000
vt 0.000000 0.000000
vt 0.000000 0.000000
vt 0.000000 0.000000
vt 0.000000 0.000000
vn -0.7418 0.2646 -0.6162
vn -0.4281 0.3135 -0.8476
vn -0.4210 0.2382 0.8752
vn -0.6781 0.2419 0.6940
vn -0.9995 -0.0220 -0.0217
vn -0.9910 -0.1310 0.0260
vn -0.9910 -0.1310 -0.0260
vn -0.9995 -0.0220 0.0217
vn -0.4348 0.8874 0.1532
vn -0.4348 0.8874 -0.1532
vn -0.4318 0.7681 -0.4728
vn -0.8298 0.4753 -0.2924
vn -0.8637 0.4944 -0.0980
vn -0.8637 0.4944 0.0980
vn -0.8298 0.4753 0.2924
vn -0.4318 0.7681 0.4728
vn 0.7418 0.2646 -0.6162
vn 0.4281 0.3135 -0.8476
vn 0.4210 0.2382 0.8752
vn 0.6781 0.2419 0.6940
vn 0.9998 0.0159 0.0157
vn 0.9967 -0.0720 0.0375
vn 0.9967 -0.0720 -0.0375
vn 0.9998 0.0159 -0.0157
vn 0.4348 0.8874 0.1532
vn 0.4348 0.8874 -0.1532
vn 0.4318 0.7681 -0.4728
vn 0.8298 0.4753 -0.2924
vn 0.8637 0.4944 -0.0980
vn 0.8637 0.4944 0.0980
vn 0.8298 0.4753 0.2924
vn 0.4318 0.7681 0.4728
vn -0.0000 -0.9688 -0.2480
vn 0.0000 -0.9688 0.2480
vn 0.0000 -0.9694 -0.2454
vn 0.0000 -0.9866 0.1630
usemtl Material
s off
f 52/56/43 50/57/43 53/58/43 61/59/43
f 61/59/44 53/58/44 54/60/44 62/61/44
f 63/62/45 55/63/45 56/64/45 64/65/45
f 64/65/46 56/64/46 51/66/46 57/67/46
f 57/67/47 51/66/47 58/68/47 65/69/47
f 65/69/48 58/68/48 59/70/48 66/71/48
f 66/71/49 59/70/49 60/72/49 67/73/49
f 67/73/50 60/72/50 50/57/50 52/56/50
f 68/74/51 69/75/51 72/76/51 71/77/51
f 69/75/52 70/78/52 73/79/52 72/76/52
f 70/78/53 54/60/53 53/58/53 73/79/53
f 73/79/54 53/58/54 50/57/54 60/72/54
f 72/76/55 73/79/55 60/72/55 59/70/55
f 71/77/56 72/76/56 59/70/56 58/68/56
f 56/64/57 71/77/57 58/68/57 51/66/57
f 55/63/58 68/74/58 71/77/58 56/64/58
f 76/80/59 83/81/59 77/82/59 74/83/59
f 83/81/60 62/61/60 54/60/60 77/82/60
f 63/62/61 84/84/61 78/85/61 55/63/61
f 84/84/62 79/86/62 75/87/62 78/85/62
f 79/86/63 85/88/63 80/89/63 75/87/63
f 85/88/64 86/90/64 81/91/64 80/89/64
f 86/90/65 87/92/65 82/93/65 81/91/65
f 87/92/66 76/80/66 74/83/66 82/93/66
f 68/74/67 88/94/67 89/95/67 69/75/67
f 69/75/68 89/95/68 90/96/68 70/78/68
f 70/78/69 90/96/69 77/82/69 54/60/69
f 90/96/70 82/93/70 74/83/70 77/82/70
f 89/95/71 81/91/71 82/93/71 90/96/71
f 88/94/72 80/89/72 81/91/72 89/95/72
f 78/85/73 75/87/73 80/89/73 88/94/73
f 55/63/74 78/85/74 88/94/74 68/74/74
f 66/71/75 86/90/75 85/88/75 65/69/75
f 67/73/76 87/92/76 86/90/76 66/71/76
f 64/65/77 57/67/77 65/69/77 85/88/77 79/86/77 84/84/77 63/62/77
f 62/61/78 83/81/78 76/80/78 87/92/78 67/73/78 52/56/78 61/59/78
